<?xml version="1.0" encoding="UTF-8"?>
<svg id="Calque_1" xmlns="http://www.w3.org/2000/svg" version="1.1" viewBox="0 0 480 480">
  <!-- Generator: Adobe Illustrator 29.8.2, SVG Export Plug-In . SVG Version: 2.1.1 Build 3)  -->
  <defs>
    <style>
      .st0 {
        fill: #007bc3;
      }
    </style>
  </defs>
  <path class="st0" d="M111.65,432.01h95.97v16h-95.97v-16Z"/>
  <path class="st0" d="M111.65,368.03h95.97v16h-95.97v-16Z"/>
  <path class="st0" d="M478.5,187.43l-74.62-104.47c3.12-1.63,5.98-3.71,8.51-6.16l1.28-1.28-11.31-11.31-1.28,1.28c-6.37,6.37-16.09,7.95-24.14,3.92-30.96-15.29-66.79-17.35-99.29-5.71-4.44,1.58-8.99,2.87-13.6,3.85v-14.41c11.34-12.86,10.53-32.38-1.85-44.25-12.38-11.87-31.91-11.87-44.29,0-12.38,11.87-13.19,31.39-1.85,44.25v14.4c-4.6-.98-9.12-2.27-13.55-3.85-32.5-11.66-68.35-9.61-99.3,5.69-8.08,3.92-17.75,2.35-24.18-3.91l-1.28-1.28-11.31,11.31,1.27,1.28c2.53,2.45,5.4,4.52,8.53,6.14L1.62,187.43l.11.08c-1.01,1.31-1.57,2.91-1.61,4.57.04,30.91,25.08,55.95,55.99,55.99h63.98c30.9-.04,55.95-25.08,55.99-55.99-.04-1.65-.6-3.25-1.6-4.57l.11-.08-72.09-100.88c2.68-.66,5.28-1.6,7.76-2.81,27.03-13.38,58.33-15.18,86.72-5.01,6.22,2.2,12.59,3.9,19.08,5.1v204.22h-23.99c-27.8.05-51.35,20.48-55.34,47.99H55.66c-3.03,0-5.8,1.71-7.15,4.42-10.49,21.18-11.05,45.92-1.54,67.56-9.51,21.64-8.95,46.38,1.54,67.56,1.35,2.71,4.12,4.42,7.15,4.42h375.9c2.77,0,5.35-1.43,6.81-3.79,1.46-2.36,1.59-5.3.35-7.78-8.89-17.9-8.89-38.94,0-56.83.09-.21.16-.43.23-.65.13-.3.24-.62.33-.94.08-.33.14-.66.18-1,.11-.66.11-1.32,0-1.98-.04-.34-.09-.67-.18-1-.09-.32-.2-.63-.33-.93-.06-.22-.14-.44-.23-.65-8.89-17.9-8.89-38.94,0-56.83,1.24-2.48,1.11-5.42-.35-7.78-1.46-2.36-4.03-3.79-6.81-3.79h-88.17c-3.99-27.51-27.55-47.93-55.34-47.99h-23.99V83.83c6.49-1.2,12.86-2.91,19.08-5.1,28.38-10.17,59.67-8.35,86.69,5.01,2.47,1.23,5.08,2.17,7.76,2.82l-72.04,100.87.11.08c-1.01,1.31-1.57,2.91-1.61,4.57.04,30.91,25.08,55.95,55.99,55.99h63.98c30.9-.04,55.95-25.08,55.99-55.99-.04-1.65-.6-3.25-1.6-4.57l.1-.08ZM88.1,93.87l64.44,90.21H23.66l64.44-90.21ZM120.09,232.06h-63.98c-19-.02-35.37-13.38-39.19-31.99h142.36c-3.82,18.61-20.19,31.97-39.19,31.99ZM416.51,384.02c.52,5.43,1.59,10.79,3.2,16h-134.86c-.18-.46-.42-.92-.59-1.38-.3-.8-.57-1.6-.85-2.4-.47-1.39-.88-2.81-1.25-4.23-.21-.8-.43-1.6-.6-2.4-.33-1.53-.58-3.09-.8-4.64-.04-.3-.09-.59-.12-.88l135.87-.07ZM416.51,432.01h-135.86c0-.3.09-.58.12-.88.22-1.55.47-3.1.8-4.64.18-.8.39-1.6.6-2.4.37-1.42.8-2.83,1.25-4.23.27-.8.55-1.6.85-2.4.18-.46.41-.92.59-1.38h134.87c-1.61,5.18-2.69,10.52-3.22,15.92ZM266.24,357.63l-.05.21c-.6,2.64-1.06,5.31-1.39,8-.09.69-.16,1.36-.23,2.05-.26,2.66-.45,5.33-.46,8v.21c0,2.67.2,5.33.46,8,.07.69.14,1.36.23,2.04.32,2.69.79,5.36,1.39,8l.05.21c.45,1.89.96,3.76,1.53,5.6h-15.34c-6.24-15.39-6.24-32.6,0-47.99h15.34c-.58,1.92-1.09,3.83-1.53,5.73v-.04ZM92.9,416.02h142.56c-4.91,15.62-4.91,32.37,0,47.99H92.9c-6.25-15.39-6.25-32.6,0-47.99ZM235.45,400.02H92.9c-6.25-15.39-6.25-32.6,0-47.99h142.56c-4.91,15.62-4.91,32.37,0,47.99h-.02ZM60.82,352.03h15.13c-4.91,15.62-4.91,32.37,0,47.99h-15.13c-6.23-15.39-6.23-32.6,0-47.99ZM60.82,416.02h15.13c-4.91,15.62-4.91,32.37,0,47.99h-15.13c-6.23-15.39-6.23-32.6,0-47.99ZM252.43,464c-6.24-15.39-6.24-32.6,0-47.99h15.34c-.58,1.86-1.09,3.73-1.53,5.6l-.05.21c-.6,2.64-1.06,5.31-1.39,8-.09.69-.16,1.36-.23,2.05-.26,2.66-.45,5.33-.46,8v.21c0,2.67.2,5.33.46,8,.07.69.14,1.36.23,2.04.32,2.69.79,5.36,1.39,8l.05.21c.45,1.89.96,3.76,1.53,5.6l-15.34.09ZM284.85,464c-.18-.46-.42-.92-.59-1.38-.3-.8-.57-1.6-.85-2.4-.47-1.39-.88-2.81-1.25-4.23-.21-.8-.43-1.6-.6-2.4-.33-1.53-.58-3.09-.8-4.64-.04-.3-.09-.59-.12-.88h135.87c.52,5.42,1.59,10.79,3.2,16l-134.86-.07ZM416.5,368.03h-135.84c0-.3.09-.58.12-.88.22-1.55.47-3.1.8-4.64.18-.8.39-1.6.6-2.4.37-1.42.8-2.83,1.25-4.23.27-.8.55-1.6.85-2.4.18-.46.41-.92.59-1.38h134.87c-1.61,5.18-2.69,10.52-3.22,15.92h-.02ZM327.24,336.04h-174.35c3.82-18.61,20.19-31.97,39.19-31.99h95.97c19,.02,35.37,13.38,39.19,31.99ZM232.06,288.05V49.89c0-2.27-.96-4.42-2.64-5.94-3.4-2.99-5.35-7.3-5.36-11.83,0-8.83,7.16-16,16-16s16,7.16,16,16c0,4.53-1.96,8.84-5.36,11.83-1.68,1.52-2.64,3.68-2.64,5.94v238.16h-16ZM456.46,184.08h-128.88l64.44-90.21,64.44,90.21ZM424.01,232.06h-63.98c-19-.02-35.37-13.38-39.19-31.99h142.36c-3.82,18.61-20.19,31.97-39.19,31.99Z"/>
</svg>